<?xml version="1.0" encoding="UTF-8" standalone="no" ?>
<!DOCTYPE svg PUBLIC "-//W3C//DTD SVG 1.1//EN" "http://www.w3.org/Graphics/SVG/1.1/DTD/svg11.dtd">
<svg xmlns="http://www.w3.org/2000/svg" xmlns:xlink="http://www.w3.org/1999/xlink" version="1.1" width="1000" height="1000" viewBox="0 0 1000 1000" xml:space="preserve">
<desc>Created with Fabric.js 5.3.0</desc>
<defs>
</defs>
<g transform="matrix(1.4712978897359945 0 0 1.4712978897359945 500.32918776838244 500.2883534800053)" id="background-06ec4e1e-2645-4692-aaff-015962cb467a"  >
<linearGradient id="SVGID_131584" gradientUnits="userSpaceOnUse" gradientTransform="matrix(1 0 0 1 -340 -340)"  x1="0" y1="0" x2="0" y2="680">
<stop offset="0%" style="stop-color:rgb(250,217,97);stop-opacity: 1"/>
<stop offset="100%" style="stop-color:rgb(247,107,28);stop-opacity: 1"/>
</linearGradient>
<rect style="stroke: none; stroke-width: 0; stroke-dasharray: none; stroke-linecap: butt; stroke-dashoffset: 0; stroke-linejoin: miter; stroke-miterlimit: 4; fill: url(#SVGID_131584); fill-rule: nonzero; opacity: 1;"  paint-order="stroke"  x="-340" y="-340" rx="0" ry="0" width="680" height="680" />
</g>
<g transform="matrix(-5.880437670715058 0 0 -4.551410567219394 412.5267032071142 455.1881276917072)" id="shape-4ecbd7c7-bf1d-49d6-80ac-7a51def07afe-logo"  >
<g style="opacity: 0.7;"  paint-order="stroke"   >
		<g transform="matrix(1 0 0 1 0 0)" id="basic-shape-12"  >
<polygon style="stroke: none; stroke-width: 1; stroke-dasharray: none; stroke-linecap: butt; stroke-dashoffset: 0; stroke-linejoin: miter; stroke-miterlimit: 4; fill: rgb(0,0,0); fill-rule: nonzero; opacity: 1;"  paint-order="stroke"  points="-100,-100 -100,100 100,100 " />
</g>
</g>
</g>
<g transform="matrix(5.0430737571984725 0 0 5.474685511558833 502.1888399716529 449.9252818143148)" id="shape-f4cc03d8-9d1e-4c40-aa2b-e02d93bfcba4-logo"  >
<g style="opacity: 0.4;"  paint-order="stroke"   >
		<g transform="matrix(1 0 0 1 0 0)" id="basic-shape-12"  >
<polygon style="stroke: none; stroke-width: 1; stroke-dasharray: none; stroke-linecap: butt; stroke-dashoffset: 0; stroke-linejoin: miter; stroke-miterlimit: 4; fill: rgb(0,0,0); fill-rule: nonzero; opacity: 1;"  paint-order="stroke"  points="-100,-100 -100,100 100,100 " />
</g>
</g>
</g>
<g transform="matrix(5.024477235165768 0 0 2.3767542301931437 501.09714815605736 762.8542129709292)" id="shape-f51bf0b2-1176-4b24-870c-8fb2e0a9a166-logo"  >
<g style="opacity: 0.4;"  paint-order="stroke"   >
		<g transform="matrix(1 0 0 1 0 0)" id="basic-shape-12"  >
<polygon style="stroke: none; stroke-width: 1; stroke-dasharray: none; stroke-linecap: butt; stroke-dashoffset: 0; stroke-linejoin: miter; stroke-miterlimit: 4; fill: rgb(0,0,0); fill-rule: nonzero; opacity: 1;"  paint-order="stroke"  points="-100,-100 -100,100 100,100 " />
</g>
</g>
</g>
<g transform="matrix(-4.2304743477991185 0 0 3.5277783975509407 577.5230354987089 644.615993215104)" id="shape-075a20e6-838d-4676-8d77-7316669ef053-logo"  >
<g style="opacity: 0.4;"  paint-order="stroke"   >
		<g transform="matrix(1 0 0 1 0 0)" id="basic-shape-12"  >
<polygon style="stroke: none; stroke-width: 1; stroke-dasharray: none; stroke-linecap: butt; stroke-dashoffset: 0; stroke-linejoin: miter; stroke-miterlimit: 4; fill: rgb(0,0,0); fill-rule: nonzero; opacity: 1;"  paint-order="stroke"  points="-100,-100 -100,100 100,100 " />
</g>
</g>
</g>
<g transform="matrix(0 3.6291155613237276 -2.5158348191295454 0 249.46494616476025 362.95862710214055)" id="shape-f419ed35-bb9e-4160-8c94-7473b586db49-logo"  >
<g style="opacity: 0.4;"  paint-order="stroke"   >
		<g transform="matrix(1 0 0 1 0 0)" id="basic-shape-12"  >
<polygon style="stroke: none; stroke-width: 1; stroke-dasharray: none; stroke-linecap: butt; stroke-dashoffset: 0; stroke-linejoin: miter; stroke-miterlimit: 4; fill: rgb(0,0,0); fill-rule: nonzero; opacity: 1;"  paint-order="stroke"  points="-100,-100 -100,100 100,100 " />
</g>
</g>
</g>
<g transform="matrix(-4.235178667072922 0 0 -2.286254032739631 577.0526035713285 228.6724742437309)" id="shape-7822054a-63cb-4f48-9b7d-71ecfa5bd859-logo"  >
<g style="opacity: 0.4;"  paint-order="stroke"   >
		<g transform="matrix(1 0 0 1 0 0)" id="basic-shape-12"  >
<polygon style="stroke: none; stroke-width: 1; stroke-dasharray: none; stroke-linecap: butt; stroke-dashoffset: 0; stroke-linejoin: miter; stroke-miterlimit: 4; fill: rgb(0,0,0); fill-rule: nonzero; opacity: 1;"  paint-order="stroke"  points="-100,-100 -100,100 100,100 " />
</g>
</g>
</g>
<g transform="matrix(4.365659294532389 0 0 4.365659294532389 500.32918776838244 500.2883534800053)" id="shape-8747870b-a5fb-41cc-bfe9-0558eea30963"  >
<g style=""  paint-order="stroke"   >
		<g transform="matrix(1 0 0 1 0 0)" id="Layer_1"  >
<linearGradient id="SVGID_230_242_255_257_261_265_269_273_277_26_26_257_131585" gradientUnits="userSpaceOnUse" gradientTransform="matrix(1 0 0 1 0 0)"  x1="0" y1="0" x2="0" y2="200">
<stop offset="0%" style="stop-color:rgb(250,217,97);stop-opacity: 1"/>
<stop offset="100%" style="stop-color:rgb(247,107,28);stop-opacity: 1"/>
</linearGradient>
<path style="stroke: none; stroke-width: 1; stroke-dasharray: none; stroke-linecap: butt; stroke-dashoffset: 0; stroke-linejoin: miter; stroke-miterlimit: 4; fill: url(#SVGID_230_242_255_257_261_265_269_273_277_26_26_257_131585); fill-rule: nonzero; opacity: 1;"  paint-order="stroke"  transform=" translate(-100, -100)" d="M 100 0 C 44.8 0 0 44.8 0 100 C 0 155.2 44.8 200 100 200 C 155.2 200 200 155.2 200 100 C 200 44.80000000000001 155.2 0 100 0 z M 100 190 C 50.4 190 10 149.6 10 100 C 10 50.400000000000006 50.4 10 100 10 C 149.6 10 190 50.4 190 100 C 190 149.6 149.6 190 100 190 z" stroke-linecap="round" />
</g>
</g>
</g>
<g transform="matrix(3.386188169463679 0 0 3.386188169463679 500.32918776838244 500.2883534800053)" id="shape-b3247aa8-90c2-4f12-969f-d63105674ba0"  >
<g style="opacity: 0.8;"  paint-order="stroke"   >
		<g transform="matrix(1 0 0 1 0 0)" id="Layer_1"  >
<path style="stroke: none; stroke-width: 1; stroke-dasharray: none; stroke-linecap: butt; stroke-dashoffset: 0; stroke-linejoin: miter; stroke-miterlimit: 4; fill: rgb(0,0,0); fill-rule: nonzero; opacity: 1;"  paint-order="stroke"  transform=" translate(-100, -100)" d="M 200 100 C 200 155.22847498307934 155.22847498307934 200 100 200 C 44.771525016920656 200 0 155.22847498307934 0 100 C 0 44.771525016920656 44.771525016920656 0 100 0 C 155.22847498307934 0 200 44.77152501692063 200 99.99999999999997 Z" stroke-linecap="round" />
</g>
</g>
</g>
<g transform="matrix(2.0984615384615384 0 0 2.0984615384615384 499.8374842470161 525.1787899516149)" id="maker-logo"  >
<g style=""  paint-order="stroke"   >
		<g transform="matrix(1 0 0 1 0 -53.25999841070086)" id="logo-logo"  >
<g style=""  paint-order="stroke"   >
		<g transform="matrix(1.7333333593333338 0 0 1.733333359333334 -2.880035001375859 -21.426843009404507)"  >
<linearGradient id="SVGID_131611" gradientUnits="userSpaceOnUse" gradientTransform="matrix(1 0 0 1 137.18132423227996 23.01490579776302)"  x1="0" y1="0" x2="0" y2="91">
<stop offset="0%" style="stop-color:rgb(23,234,217);stop-opacity: 1"/>
<stop offset="100%" style="stop-color:rgb(96,120,234);stop-opacity: 1"/>
</linearGradient>
<path style="stroke: none; stroke-width: 1; stroke-dasharray: none; stroke-linecap: butt; stroke-dashoffset: 0; stroke-linejoin: miter; stroke-miterlimit: 4; fill: url(#SVGID_131611); fill-rule: nonzero; opacity: 1;"  paint-order="stroke"  transform=" translate(-185.83844136613993, -68.34583096172608)" d="M 184.0518483 44.2282124 C 183.8785615 43.993504099999996 183.59999589999998 43.8399771 183.2863553 43.8399771 C 182.76215729999998 43.8399771 182.3344023 44.267678599999996 182.3344023 44.7919301 C 182.3344023 45.3161281 182.76215729999998 45.743829600000005 183.2863553 45.743829600000005 C 183.6131691 45.743829600000005 183.9027123 45.577129400000004 184.0738036 45.324910300000006 C 184.17688679999998 45.17357880000001 184.2383083 44.989314300000004 184.2383083 44.79193010000001 C 184.2383083 44.58134590000001 184.1681046 44.38613050000001 184.0518482 44.22821240000001 Z M 191.5422732 33.7964096 C 191.36903990000002 33.5858522 191.10584310000002 33.4520583 190.8097133 33.4520583 C 190.28546169999998 33.4520583 189.8599558 33.879786499999994 189.8599558 34.4039845 C 189.8599558 34.9282093 190.28546169999998 35.3559375 190.8097133 35.3559375 C 191.156287 35.3559375 191.4589499 35.169477400000005 191.6234545 34.893107400000005 C 191.71116890000002 34.750558100000006 191.7616127 34.581662300000005 191.7616127 34.403984400000006 C 191.7616127 34.1736671 191.6782894 33.963109700000004 191.5422731 33.7964095 Z M 211.2367818 32.6251437 C 210.71258379999998 32.6251437 210.28707789999999 33.0528719 210.28707789999999 33.577069900000005 C 210.28707789999999 34.01355350000001 210.5809587 34.3820558 210.9823672 34.49172550000001 C 211.063495 34.51584960000001 211.1490674 34.52902290000001 211.2367818 34.52902290000001 C 211.5592581 34.52902290000001 211.8421612 34.368909300000006 212.015448 34.125418800000006 C 212.1251178 33.9696963 212.1887348 33.781067500000006 212.1887348 33.577069900000005 C 212.1887348 33.05287190000001 211.7632289 32.6251437 211.2367818 32.6251437 Z M 212.903784 40.0870802 L 212.9059795 40.0892757 L 212.9059795 40.0870802 L 212.903784 40.0870802 Z M 161.6726255 45.5135391 C 161.516903 45.406064900000004 161.3282474 45.340279 161.1242766 45.340279 C 160.9203058 45.340279 160.7317038 45.4060648 160.5759277 45.5135391 C 160.3324908 45.6867992 160.1723772 45.9719513 160.1723772 46.292178500000006 C 160.1723772 46.816430100000005 160.6000787 47.24413150000001 161.1242767 47.24413150000001 C 161.6485283 47.24413150000001 162.0762297 46.81643000000001 162.0762297 46.292178500000006 C 162.0762297 45.97195130000001 161.9161161 45.68679910000001 161.6726256 45.5135391 Z M 150.7560908 46.2461257 C 150.73199340000002 45.743829500000004 150.31521610000001 45.3424477 149.8063869 45.3424477 C 149.2821353 45.3424477 148.8544339 45.7679804 148.8544339 46.292178400000005 C 148.8544339 46.803256700000006 149.258038 47.219980500000005 149.7624762 47.2419359 C 149.777845 47.2441314 149.7910182 47.2441314 149.806387 47.2441314 C 150.330585 47.2441314 150.7582865 46.8186255 150.7582865 46.2921784 C 150.7582865 46.2768364 150.7582865 46.2614944 150.756091 46.2461257 Z M 145.180496 81.915139 C 145.02257790000002 81.6058627 144.7023507 81.39310979999999 144.3316797 81.39310979999999 C 143.80742809999998 81.39310979999999 143.3797267 81.82081129999999 143.3797267 82.345036 C 143.3797267 82.8692607 143.8074282 83.2969756 144.3316797 83.2969756 C 144.5180862 83.2969756 144.6935686 83.2421407 144.8405089 83.14782629999999 C 145.1059012 82.97893049999999 145.2835791 82.68282749999999 145.2835791 82.345036 C 145.2835791 82.1893135 145.2463085 82.0445419 145.1804959 81.915139 Z M 162.8943619 93.373436 C 162.8461136 93.3646538 162.7978653 93.3602762 162.7496171 93.3602762 C 162.3065469 93.3602762 161.9314312 93.6673436 161.8284016 94.079703 C 161.8086418 94.1542843 161.79766410000002 94.2310478 161.79766410000002 94.31220239999999 C 161.79766410000002 94.83642719999999 162.22536560000003 95.26414199999999 162.74961710000002 95.26414199999999 C 163.27381510000004 95.26414199999999 163.70151660000002 94.83642719999999 163.70151660000002 94.31220239999999 C 163.70151660000002 93.83623929999999 163.3506054 93.44143069999998 162.89436200000003 93.37343599999998 Z M 177.9103403 93.8143107 C 177.08123030000002 93.8143107 176.4100919 94.4854893 176.4100919 95.3145859 C 176.4100919 96.1415004 177.0812303 96.8126789 177.9103403 96.8126789 C 178.7372548 96.8126789 179.4106422 96.14150029999999 179.4106422 95.3145859 C 179.4106422 94.4854893 178.73725470000002 93.8143107 177.9103403 93.8143107 Z M 169.8320468 97.9773715 C 169.0029903 97.9773715 168.3317984 98.64855010000001 168.3317984 99.4754645 C 168.3317984 100.3045611 169.0029903 100.9757397 169.8320468 100.9757397 C 170.6589613 100.9757397 171.3323487 100.3045611 171.3323487 99.4754645 C 171.3323487 98.64855 170.65896120000002 97.9773715 169.8320468 97.9773715 Z M 207.3500911 26.3432552 C 173.986379 15.207380900000002 148.7864258 34.0245312 140.0830466 53.1048783 C 134.77723519999998 64.7364622 138.0081028 81.4150383 139.9031732 88.8681926 C 140.4274248 90.9365631 142.6449178 92.0771316 144.6343427 91.3050654 C 145.8122219 90.8488353 147.04268689999998 90.62510470000001 148.2644233 90.62510470000001 C 150.5389468 90.62510470000001 152.7849819 91.3971843 154.605511 92.8755308 L 179.7621216 113.32028530000001 C 180.941717 114.27894140000001 182.6563871 113.1576617 182.2510803 111.69267250000001 L 182.251079 111.69266780000001 C 182.1173118 111.20574040000001 182.0010019 110.7166174 181.9045053 110.22310340000001 C 181.82118200000002 109.80415730000001 181.7531738 109.38522460000002 181.7005345 108.96190090000002 C 181.57769150000001 108.03408540000002 181.5228566 107.09969670000002 181.5360298 106.16969910000002 C 181.5382253 105.73760660000002 181.5557896 105.30769620000002 181.5930602 104.87779920000001 C 181.6632639 103.91709080000001 181.8080087 102.96076010000002 182.0207617 102.01979820000001 C 182.1216493 101.57235030000001 182.2379057 101.12928010000002 182.3695309 100.6906009 C 182.680976 99.653129 183.080189 98.6353902 183.5627253 97.64836210000001 L 189.2875095 85.9751032 C 186.6839231 88.39881620000001 183.4969127 90.20397650000001 179.96118669999998 91.1580983 L 179.96118669999998 101.16656400000001 C 179.96118669999998 101.79387200000001 179.48957449999997 102.31371910000001 178.87980409999997 102.388287 L 178.84253349999997 102.39267810000001 C 178.80526289999997 102.39705580000002 178.76799229999997 102.39925130000002 178.72847259999998 102.39925130000002 L 177.05054629999998 102.39925130000002 C 176.4714598 102.39925130000002 175.98233689999998 101.99786950000002 175.85296079999998 101.45609380000002 C 175.82880989999998 101.36397490000002 175.81783219999997 101.26746500000002 175.81783219999997 101.16656400000002 L 175.81783219999997 91.86437870000002 C 175.26728769999997 91.90385820000002 174.71235219999997 91.92798240000002 174.15307909999996 91.92798240000002 C 173.40948799999995 91.92798240000002 172.67473249999995 91.89069840000002 171.95090119999995 91.82050820000002 L 171.95090119999995 101.16656410000002 C 171.95090119999995 101.84735850000001 171.39900829999993 102.39925140000001 170.71821389999994 102.39925140000001 L 169.04026079999994 102.39925140000001 C 168.35945159999994 102.39925140000001 167.80754669999993 101.84734650000001 167.80754669999993 101.16653730000002 L 167.80754669999993 91.00675360000001 C 165.52204549999993 90.32680630000002 163.39007129999993 89.28933440000002 161.47743669999994 87.95794160000001 L 160.17018139999993 89.2651969 L 162.20785459999993 92.3381464 C 162.56754789999994 92.2372588 162.97554309999992 92.2328677 163.39226689999992 92.3666616 C 164.08316509999992 92.5881967 164.61400329999992 93.1804162 164.75655259999994 93.8910743 C 165.04609579999993 95.3409056 163.79581739999995 96.5977305 162.34820839999995 96.323556 C 161.50372959999996 96.1612335 160.83912429999995 95.45935759999999 160.72072589999993 94.608319 C 160.63954459999994 94.01390389999999 160.80844029999994 93.4633595 161.14184069999993 93.0444268 L 158.52733019999994 89.0985101 L 160.43776929999993 87.1880576 C 159.97713479999993 86.82833749999999 159.53406459999994 86.44888429999999 159.10416759999993 86.0518802 L 156.0246314999999 89.131403 C 156.16723439999993 89.5262115 156.1584521999999 90.00218810000001 155.86232239999993 90.4584047 C 155.64517839999993 90.7940007 155.29865829999991 91.0374644 154.90603189999993 91.1098502 C 153.86197339999993 91.3072478 152.95826869999993 90.41892519999999 153.13594659999993 89.3748667 C 153.24342079999994 88.7475587 153.76103219999993 88.2474715 154.39056249999993 88.1553392 C 154.65595479999993 88.1158597 154.89944529999994 88.1465704 155.12098039999992 88.227725 L 158.18953889999992 85.15916650000001 C 157.78373929999992 84.742416 157.3955039999999 84.30812790000002 157.02263739999992 83.85848450000002 L 154.94769359999992 85.93342830000002 L 146.03595259999992 83.47683580000002 C 145.6016109999999 84.13485450000002 144.79226079999992 84.52527200000002 143.91709809999992 84.35199850000002 C 143.10994349999993 84.19187150000002 142.46504439999993 83.53824390000003 142.3181040999999 82.72668480000002 C 142.08120019999993 81.43039380000002 143.07701039999992 80.29641200000002 144.33167989999993 80.29641200000002 C 145.42837779999994 80.29641200000002 146.32544229999993 81.16279260000002 146.37808169999994 82.24633060000002 L 154.57043609999994 84.50334330000003 L 156.23299359999993 82.84074560000002 C 154.82045959999994 80.92152440000002 153.71283759999994 78.76541260000002 152.97583309999993 76.44699180000002 L 143.08579259999993 76.44699180000002 C 142.40501299999994 76.44699180000002 141.85313209999993 75.89511090000002 141.85313209999993 75.21433130000003 L 141.85313209999993 73.53416930000003 C 141.85313209999993 72.85337490000003 142.40502499999994 72.30148200000004 143.08581939999993 72.30148200000004 L 152.08530159999992 72.30148200000004 C 151.98660949999993 71.45044340000004 151.93397009999993 70.58624500000003 151.93397009999993 69.70888670000004 C 151.93397009999993 69.28117190000003 151.94714329999994 68.85784810000004 151.97124069999992 68.43671990000004 L 143.08579259999993 68.43671990000004 C 142.40501299999994 68.43671990000004 141.85313209999993 67.88483900000004 141.85313209999993 67.20405940000005 L 141.85313209999993 65.52388400000005 C 141.85313209999993 64.84308960000006 142.40502499999994 64.29119670000006 143.08581939999993 64.29119670000006 L 152.60077099999992 64.29119670000006 C 153.22585659999993 61.80389350000006 154.26771959999994 59.48109490000006 155.64956959999992 57.40612440000006 L 152.46914579999992 54.22570060000006 C 152.23882849999993 54.29368190000006 151.98880499999993 54.31563730000006 151.72341269999993 54.25860690000006 C 151.12242439999991 54.13356840000006 150.6442255999999 53.64224990000006 150.54772899999992 53.03687050000006 C 150.37663769999992 51.964323600000064 151.34615499999992 51.062814400000065 152.42748409999993 51.34357540000006 C 153.09208939999994 51.51466670000006 153.52857299999994 52.10467730000006 153.52857299999994 52.791238000000064 C 153.52857299999994 52.94476500000006 153.50661759999994 53.091705400000066 153.46276039999995 53.229917100000065 L 156.47867949999994 56.24583620000006 C 156.80549329999994 55.815912400000066 157.14987139999994 55.39696640000006 157.51176029999993 54.991220300000066 L 150.67057189999994 48.15000520000007 C 150.43805909999995 48.257479400000065 150.18583999999993 48.32326530000007 149.91605659999993 48.33863400000006 C 148.80618549999994 48.395664400000065 147.82135299999993 47.51611060000006 147.75993149999994 46.40623950000006 C 147.69631449999994 45.22621830000006 148.63948529999993 44.24575010000006 149.80638679999993 44.24575010000006 C 150.93596419999992 44.24575010000006 151.85498409999994 45.16479680000006 151.85498409999994 46.29217870000006 C 151.85498409999994 46.59928620000006 151.78697599999995 46.893167000000055 151.66418649999994 47.15419500000006 L 158.47683289999995 53.966868100000056 C 158.85853519999995 53.58302390000006 159.25549909999995 53.216743900000054 159.66349419999995 52.865805900000055 L 154.52438309999994 47.72666800000005 C 154.38617129999994 47.77052520000005 154.23703539999994 47.792480600000054 154.08570399999994 47.792480600000054 C 153.25659399999995 47.792480600000054 152.58540209999992 47.12128870000006 152.58540209999992 46.29217870000006 C 152.58540209999992 45.338083700000055 153.48032469999993 44.59010150000006 154.4805259999999 44.84456970000006 C 155.1494688999999 45.01343870000006 155.5859524999999 45.61006270000006 155.5837568999999 46.298765300000056 C 155.5837568999999 46.45012350000005 155.56185509999992 46.59489510000006 155.5179978999999 46.73305340000006 L 160.76238779999989 51.97747000000006 C 162.8527002999999 50.39823580000006 165.2325024999999 49.17652620000006 167.8075469999999 48.41103320000006 L 167.8075469999999 39.57163780000006 C 167.8075469999999 38.89082860000006 168.3594518999999 38.33892370000006 169.0402610999999 38.33892370000006 L 169.4153231999999 38.33892370000006 L 169.4153231999999 32.51547420000006 C 168.1168500999999 32.88836750000006 165.0833666999999 33.897297400000056 161.6726255999999 35.95912150000006 L 161.6726255999999 44.32031810000006 C 162.5455927999999 44.56161300000006 163.18390519999988 45.368767700000056 163.1729274999999 46.31852510000006 C 163.1597542999999 47.39985420000006 162.2626896999999 48.31011880000006 161.1791114999999 48.34082950000006 C 160.02538319999988 48.37151350000006 159.0756792999999 47.43932030000006 159.0756792999999 46.292178600000064 C 159.0756792999999 45.353425600000065 159.7117425999999 44.559417400000065 160.5759276999999 44.320318000000064 L 160.5759276999999 35.34495990000006 L 160.83698249999992 35.18484630000006 C 165.62951999999993 32.22815320000006 169.67412879999992 31.30471540000006 169.84522009999992 31.26741800000006 L 170.51202099999992 31.11828210000006 L 170.51202099999992 38.33892360000006 L 170.71818729999993 38.33892360000006 C 171.40035689999993 38.33892360000006 171.95090139999994 38.89166360000006 171.95090139999994 39.57163770000006 L 171.95090139999994 47.59726510000006 C 172.67473269999994 47.52708820000006 173.40948809999995 47.48979090000006 174.15307929999994 47.48979090000006 C 174.71235239999996 47.48979090000006 175.26728789999996 47.51171950000006 175.81783239999996 47.55118560000006 L 175.81783239999996 39.57163770000006 C 175.81783239999996 38.89082850000006 176.36973729999997 38.33892360000006 177.05054649999997 38.33892360000006 L 177.39712019999996 38.33892360000006 L 177.39712019999996 36.044640300000054 L 174.71021049999996 34.15612980000005 C 174.42286279999996 34.34475860000005 174.06750699999995 34.43908640000005 173.68585829999995 34.390811400000054 C 173.06077269999994 34.311879100000056 172.54091219999995 33.831511600000056 172.41587359999994 33.212985800000055 C 172.20970729999993 32.184269300000054 173.06077259999995 31.289373500000057 174.07848469999993 31.418776300000054 C 174.79792489999994 31.508713000000053 175.36164259999993 32.133825400000056 175.38354439999992 32.859825500000056 C 175.3879354999999 32.99803730000006 175.3726202999999 33.13180440000006 175.33968719999993 33.25903850000006 L 177.39712019999993 34.70447880000006 L 177.39712019999993 29.32629500000006 L 177.76120459999993 29.196865400000057 C 178.12968009999992 29.065267000000055 186.67953229999992 26.095400700000056 199.98470489999994 28.88102930000006 C 200.31151869999994 28.424785900000057 200.88835609999995 28.15500250000006 201.51569079999993 28.282236600000058 C 202.10131029999994 28.402857300000058 202.57072699999992 28.88102930000006 202.67814769999993 29.46884440000006 C 202.85143449999993 30.42299300000006 202.12540769999993 31.252076200000058 201.20419219999994 31.252076200000058 C 200.44309029999994 31.252076200000058 199.81361359999994 30.683994200000058 199.71931259999994 29.946989700000056 C 188.23247359999993 27.558405300000057 180.24853459999994 29.589491900000056 178.49381809999994 30.113689900000058 L 178.49381809999994 38.33892380000006 L 178.72847289999993 38.33892380000006 C 179.40928209999993 38.33892380000006 179.96118699999994 38.89082870000006 179.96118699999994 39.57163790000006 L 179.96118699999994 48.25747950000006 C 189.41469039999993 50.81059530000006 196.37213509999992 59.44599310000006 196.37213509999992 69.70888680000006 L 196.37213509999992 69.75275740000006 C 196.36999309999993 71.45701680000006 198.24530359999991 72.49887970000006 199.69296619999992 71.59739730000007 C 200.98704819999992 70.79242480000006 202.1210701999999 70.08834000000007 202.1210701999999 70.08834000000007 C 203.69591329999992 69.11227620000007 204.4307222999999 67.25228100000007 203.9503278999999 65.46029380000007 L 201.61877399999992 56.80513610000007 C 201.30952449999992 55.64923910000007 201.4717800999999 54.44504020000007 202.0793549999999 53.41415490000007 C 202.47198139999992 52.75174510000007 203.0159392999999 52.21434710000007 203.6630337999999 51.83928500000007 C 200.5834976999999 49.82576270000007 196.8635070999999 48.71369610000007 192.54467029999992 48.51850750000007 C 192.31660209999993 49.05807430000007 191.78356839999992 49.43752740000007 191.16067829999992 49.43752740000007 C 190.3293727999999 49.43752740000007 189.65159419999992 48.75755330000007 189.6603763999999 47.92188350000007 C 189.66915859999992 47.11909320000007 190.3468835999999 46.44134140000007 191.1518961999999 46.43697710000007 C 191.8011327999999 46.43258600000007 192.3582637999999 46.84711430000007 192.56882129999988 47.421809600000074 C 198.10055879999987 47.67402870000007 202.09033279999989 49.391474700000074 204.88032569999987 51.358944200000074 C 206.42448479999987 50.979491000000074 208.75828789999989 50.415773300000076 212.09443419999988 49.63491160000007 C 211.71058999999988 49.18967260000007 211.2872259999999 48.73784700000007 210.82444949999987 48.288190200000074 C 208.60256539999986 46.12767400000007 205.11283849999987 43.690841400000075 199.92767459999988 42.32872440000007 L 195.83915499999986 45.32491040000007 L 185.26260729999987 45.32491040000007 C 185.02789899999988 46.20226870000007 184.22293989999986 46.84930970000007 183.26884489999986 46.84052760000007 C 182.18526669999986 46.831772200000074 181.27063789999985 45.934680900000075 181.23770479999988 44.85112950000007 C 181.20482529999987 43.69523250000007 182.13701849999987 42.74327940000007 183.2863556999999 42.74327940000007 C 184.2207443999999 42.74327940000007 185.01038829999987 43.37058740000007 185.25382519999988 44.22821260000007 L 195.4816571999999 44.22821260000007 L 198.52826029999989 41.99751950000007 C 196.72529549999987 41.61587080000007 194.73806609999988 41.36362490000007 192.5468658999999 41.289057000000064 C 192.3166021999999 41.839601500000065 191.76825329999988 42.22564130000006 191.1299407999999 42.212494800000066 C 190.3359058999999 42.19712600000007 189.6713540999999 41.528129600000064 189.6603763999999 40.734148200000064 C 189.6493986999999 39.896256000000065 190.3271772999999 39.21408640000006 191.16067829999992 39.21408640000006 C 191.80552379999992 39.21408640000006 192.35387269999993 39.622081600000065 192.56662569999992 40.19235910000006 C 202.4018312999999 40.52575950000006 208.3437059999999 44.32910020000006 211.63379959999992 47.54682130000006 C 212.25674329999993 48.154369400000064 212.80948329999993 48.76413990000006 213.2964106999999 49.35417720000006 C 214.8252010999999 48.99884820000006 216.5404514999999 48.60183070000006 218.4618682999999 48.160956000000056 C 217.8323379999999 46.91292670000006 216.3342851999999 44.41245020000005 213.4565242999999 41.93612470000006 C 209.8966473999999 38.876321600000054 203.46559609999989 35.25502320000006 192.7925518999999 34.91506290000006 C 192.5380836999999 35.90867760000006 191.5532511999999 36.61274900000006 190.4455756999999 36.42189790000006 C 189.6209102999999 36.27934860000006 188.9541094999999 35.62132990000006 188.8005288999999 34.79880650000006 C 188.5548963999999 33.49811110000006 189.5507065999999 32.35536050000006 190.8097135999999 32.35536050000006 C 191.7353201999999 32.35536050000006 192.5205729999999 32.97169080000006 192.7727919999999 33.81836510000006 C 202.6298994999999 34.12102800000006 209.0083112999999 37.16109800000006 212.9037841999999 40.08708040000006 L 211.3706026999999 35.621330000000064 C 211.3267454999999 35.62352550000006 211.28069279999988 35.625721100000064 211.2367819999999 35.625721100000064 C 210.0874447999999 35.625721100000064 209.1574471999999 34.67376810000006 209.19038019999988 33.515648700000064 C 209.2232596999999 32.44749280000006 210.11159569999987 31.559156900000065 211.17980509999987 31.528446100000064 C 212.33567539999987 31.497735300000063 213.28543279999988 32.42773300000007 213.28543279999988 33.577070200000065 C 213.28543279999988 34.272386300000065 212.9366635999999 34.888716500000065 212.4036833999999 35.25721880000007 L 214.5203423999999 41.40967770000007 C 217.5603588999999 44.12293390000006 219.0343142999999 46.776937300000064 219.58924989999988 47.96137640000007 C 220.72980499999989 47.88458610000007 221.87914219999988 48.25967500000007 222.7652825999999 49.01421700000007 C 225.34252259999988 51.20978150000008 227.44161719999988 53.425105800000075 228.7510679999999 54.89906130000007 C 229.36303399999989 55.58562200000007 230.3062047999999 55.90584920000007 231.21205159999988 55.73036680000007 L 234.49555849999987 55.094303500000066 C 231.21644259999988 45.188921000000065 224.57702949999987 32.092137000000065 207.35009109999987 26.343255500000065 Z" stroke-linecap="round" />
</g>
		<g transform="matrix(1.7333333593333338 0 0 1.733333359333334 -3.2996190079309144 -21.4288131364259)"  >
<path style="stroke: none; stroke-width: 1; stroke-dasharray: none; stroke-linecap: butt; stroke-dashoffset: 0; stroke-linejoin: miter; stroke-miterlimit: 4; fill: rgb(83,113,255); fill-rule: nonzero; opacity: 1;"  paint-order="stroke"  transform=" translate(-185.5963736736815, -68.34469435000001)" d="M 180.7304817 112.1288034 L 170.64771580000001 103.9346283 L 170.71818720000002 103.9346283 C 172.24456780000003 103.9346283 173.4862783 102.6928108 173.4862783 101.1665372 L 173.4862783 93.45398809999999 C 173.7094734 93.46030699999999 173.932026 93.46341279999999 174.1530792 93.46341279999999 C 174.19613320000002 93.46341279999999 174.2391871 93.46330569999999 174.2824553 93.46298439999998 L 174.2824553 101.16653709999999 C 174.2824553 101.39498009999998 174.3096585 101.61753269999998 174.36342240000002 101.82830429999999 C 174.66715630000002 103.06937209999998 175.76985170000003 103.93462819999999 177.0505463 103.93462819999999 L 178.7283655 103.93462819999999 C 178.82625439999998 103.93462819999999 178.9209302 103.92916609999999 179.0179623 103.91802779999999 L 179.0593027 103.9132083 C 179.47399159999998 103.86244319999999 179.85783579999998 103.72214299999999 180.19262849999998 103.5130849 C 180.13586579999998 103.9317365 180.0921693 104.3500667 180.06175299999998 104.7658266 C 180.02362559999997 105.2035418 180.0032767 105.667068 180.0007063 106.1620815 C 179.9865692 107.1512516 180.04633059999998 108.1659113 180.1784913 109.1636493 C 180.23354039999998 109.6066124 180.30808159999998 110.0679966 180.39868769999998 110.5226336 C 180.4978617 111.0311415 180.62338219999998 111.56331850000001 180.77053679999997 112.09913680000001 C 180.7763202 112.1203425 180.7763202 112.12880330000002 180.7763202 112.12891040000001 C 180.776106 112.12816070000001 180.7752492 112.12783940000001 180.77396399999998 112.12783940000001 C 180.76860899999997 112.12783940000001 180.75532869999998 112.13512220000001 180.74440459999997 112.13908480000002 C 180.74076319999998 112.13672860000003 180.73605079999996 112.13340850000002 180.73048169999996 112.12880330000002 Z M 163.1856723 97.8702319 C 164.09644559999998 97.7589556 164.9307499 97.3033548 165.5219386 96.58225449999999 C 165.9085674 96.11069579999999 166.16282139999998 95.55699189999999 166.272277 94.9718008 L 166.272277 100.3786069 L 163.1856723 97.8702319 Z M 181.4966708 92.3027767 C 182.79235930000002 91.8814477 184.0509915 91.3470217 185.2560739 90.7088163 L 182.1842489 96.97231049999999 C 181.9347073 97.4829604 181.7050862 98.00314219999998 181.4966708 98.52953579999999 L 181.4966708 92.3027767 Z M 156.2233545 92.2118493 C 156.5900628 91.97976489999999 156.9092191 91.66671339999999 157.1514779 91.2921868 C 157.3333327 91.0121219 157.4661359 90.711601 157.54860250000002 90.4010127 L 159.36158110000002 93.13729529999999 C 159.19921840000003 93.6040345 159.1356014 94.10397449999999 159.17715590000003 94.61248239999999 L 156.22335450000003 92.21184939999999 Z M 166.2622096 93.5903257 C 166.1180538 92.87168869999999 165.7581998 92.22909229999999 165.2488351 91.7361138 C 165.5868408 91.8726655 165.92805950000002 92.0016132 166.272277 92.1225284 L 166.272277 93.64248309999999 C 166.26906400000001 93.6250259 166.2656368 93.6076758 166.2622097 93.5903257 Z M 163.1171286 90.7479076 C 163.0742888 90.7434094 163.0312349 90.739768 162.9883951 90.7368764 L 162.9294904 90.6481981 C 162.9918223 90.6817202 163.0543683 90.714921 163.11712849999998 90.7479076 Z M 143.347222 90.0122419 C 142.42273999999998 90.0122419 141.61842349999998 89.38667430000001 141.3913728 88.4908949 C 139.6951325 81.8190307 136.30843529999999 65.0795016 141.4800511 53.7421734 C 142.7693137 50.915498899999996 144.3920838 48.1735401 146.2952401 45.5783075 C 146.2339792 45.8758296 146.2102032 46.1819197 146.2266965 46.4889737 C 146.3303687 48.357965300000004 147.9394301 49.876634800000005 149.8138838 49.876634800000005 C 149.8738595 49.876634800000005 149.93426350000001 49.875028300000004 149.9948818 49.8719224 C 150.0649248 49.8679597 150.1345394 49.8620693 150.2035114 49.854251000000005 L 150.5113151 50.162054700000006 C 150.2144356 50.33330660000001 149.9456161 50.555537900000004 149.7177085 50.82264380000001 C 149.1404427 51.49929780000001 148.89047269999998 52.39454170000001 149.0316297 53.27875430000001 C 149.2278358 54.50868380000001 150.183805 55.506528900000006 151.4107358 55.76174680000001 C 151.5660299 55.79516180000001 151.7301062 55.81615330000001 151.8956819 55.82365030000001 L 153.698379 57.62645450000001 C 152.7419814 59.24226310000001 151.9839318 60.95992330000001 151.4349403 62.75587310000001 L 143.08589949999998 62.75587310000001 C 141.55951889999997 62.75587310000001 140.3178084 63.99758350000001 140.3178084 65.52385710000001 L 140.3178084 67.20403250000001 C 140.3178084 68.7304131 141.55951879999998 69.97212360000002 143.0856853 69.97212360000002 L 150.40014589999998 69.97212360000002 C 150.40314469999998 70.23569520000002 150.4106416 70.50065910000002 150.42242259999998 70.76605140000002 L 143.08589949999998 70.76605140000002 C 141.55951889999997 70.76605140000002 140.3178084 72.00786890000002 140.3178084 73.53414250000003 L 140.3178084 75.21431790000003 C 140.3178084 76.74069850000002 141.55951879999998 77.98240900000003 143.0856853 77.98240900000003 L 151.8811164 77.98240900000003 C 152.4920114 79.62702740000003 153.2817623 81.19357030000003 154.2407304 82.66168890000003 L 154.1167093 82.78581710000003 L 147.6577587 81.00636060000004 C 147.12654569999998 79.68421850000004 145.8344985 78.76102170000004 144.3316797 78.76102170000004 C 143.2658265 78.76102170000004 142.2620909 79.23161650000004 141.5781541 80.05199790000005 C 140.8952883 80.87077280000004 140.61447370000002 81.94626500000004 140.807681 83.00269350000005 C 141.0655764 84.42711550000006 142.1952608 85.57564950000005 143.6183976 85.85807060000005 C 143.8546589 85.90487300000005 144.0945615 85.92854200000005 144.332108 85.92854200000005 C 145.1291417 85.92854200000005 145.8869771 85.66614850000005 146.50108500000002 85.19769570000005 L 153.09241050000003 87.01463700000005 C 152.33350420000002 87.45877820000005 151.77530210000003 88.22518150000005 151.62257830000001 89.11549880000005 C 151.59644600000001 89.26897220000005 151.58209470000003 89.42276700000005 151.57909590000003 89.57570490000005 C 150.50917290000004 89.25601320000004 149.39191200000002 89.08968780000005 148.26436950000002 89.08968780000005 C 146.8300943 89.08968780000005 145.42216560000003 89.35336650000005 144.0797818 89.87333410000005 C 143.8420211 89.96554670000005 143.5956925 90.01224200000006 143.3472219 90.01224200000006 Z M 198.5490372 70.3937738 C 198.3813195 70.3937738 198.20781849999997 70.3205178 198.08529679999998 70.19778190000001 C 197.96705909999997 70.0794371 197.9072976 69.93035470000001 197.90751179999998 69.75471170000002 L 197.90751179999998 69.70887320000001 C 197.90751179999998 60.420035200000015 192.48356979999997 52.095520100000016 184.30717319999997 48.22751820000001 C 185.07786049999996 47.99789710000001 185.74980209999995 47.513807800000016 186.21204309999996 46.86028730000001 L 188.32468589999996 46.86028730000001 C 188.19959379999997 47.18597660000001 188.12912239999997 47.538119400000014 188.12505259999998 47.90504190000001 C 188.11648459999998 48.721889000000004 188.42835809999997 49.49107690000001 189.00283929999998 50.07176990000001 C 189.57796309999998 50.652891200000006 190.34415219999997 50.97290420000001 191.160678 50.97290420000001 C 191.9750618 50.97290420000001 192.7339682 50.64999950000001 193.2908851 50.10132930000001 C 196.2027036 50.32088310000001 198.8150721 51.00160690000001 201.0890066 52.13225520000001 C 200.9709831 52.29269010000001 200.8604565 52.45933680000001 200.7584979 52.63155260000001 C 199.93940170000002 54.021167300000016 199.71877690000002 55.64318770000001 200.13539360000001 57.20169820000001 L 202.4678043 65.8597208 C 202.7711098 66.9911189 202.30694100000002 68.16674900000001 201.31220180000003 68.7833202 C 201.31113080000003 68.78396280000001 200.17673400000004 69.4882484 198.8819022 70.29363590000001 C 198.7733034 70.36121560000001 198.66470460000002 70.39377380000002 198.5490373 70.39377380000002 Z M 230.7180555 54.2423276 C 230.4076814 54.2423276 230.1009488 54.105883000000006 229.89724569999998 53.877332800000005 C 228.5574322 52.36937330000001 226.40366329999998 50.096938200000004 223.7608785 47.8453875 C 222.84839159999999 47.0682743 221.7259899 46.585577300000004 220.5459687 46.4533095 C 219.750006 44.985726400000004 218.2968813 42.7944727 215.8438767 40.5371387 L 214.16113090000002 35.6464446 C 214.58460190000002 35.0494725 214.82086320000002 34.3284794 214.82086320000002 33.57707 C 214.82086320000002 31.600443499999997 213.2124444 29.992345999999998 211.2356037 29.992345999999998 C 211.20368810000002 29.992345999999998 211.1713441 29.9927744 211.139 29.9936312 C 209.2424838 30.0480377 207.7139612 31.5743112 207.65569910000002 33.468471199999996 C 207.63363660000002 34.2469767 207.8557608 34.989925299999996 208.2888708 35.6138864 C 204.6614141 33.975694 199.870858 32.6166026 193.72163890000002 32.3192947 C 193.0595504 31.401667 191.9791317 30.8200102 190.80960620000002 30.8200102 C 189.74075420000003 30.8200102 188.73551920000003 31.2930682 188.0517967 32.117947799999996 C 187.3685025 32.9420777 187.0915435 34.0230319 187.29160520000002 35.08363729999999 C 187.5527135 36.47946379999999 188.63677370000002 37.59319039999999 190.01514290000003 37.901422499999995 C 189.63922400000004 38.054574599999995 189.29457810000002 38.28419579999999 189.00005480000002 38.582467599999994 C 188.4251452 39.16487409999999 188.11455700000002 39.936096899999995 188.1252669 40.7541221 C 188.13533420000002 41.489895 188.41614890000002 42.1683697 188.87153550000002 42.6928354 L 186.18805290000003 42.6928354 C 185.52746380000002 41.7827047 184.45432780000004 41.2079022 183.28630180000002 41.2079022 C 182.6469184 41.2079022 182.034524 41.3736921 181.4966708 41.6852442 L 181.4966708 39.5716375 C 181.4966708 38.515101900000005 180.9018407 37.595011 180.0291948 37.1285931 L 180.0291948 31.295210100000002 C 181.6817385 30.903547600000003 184.7730556 30.344381600000002 188.9460766 30.344381600000002 C 192.0939422 30.344381600000002 195.3334848 30.6610745 198.5871646 31.286320800000002 C 199.1179492 32.1897042 200.1011217 32.787426 201.20424549999998 32.787426 C 202.106665 32.787426 202.9561775 32.3899801 203.5345142 31.697047000000005 C 204.11327939999998 31.003792600000004 204.3516826 30.091627000000006 204.18889149999998 29.194455300000005 C 203.9697661 27.994834900000004 203.0202229 27.024514400000005 201.82542189999998 26.778507000000005 C 201.61743489999998 26.736309800000004 201.4103046 26.715425500000006 201.20510219999997 26.715425500000006 C 200.60320359999997 26.715425500000006 200.02101119999998 26.896530600000006 199.52963919999996 27.222219900000006 C 195.92188879999998 26.515685200000007 192.34069909999997 26.157866100000007 188.87324889999996 26.157866100000007 C 181.90493359999996 26.157866100000007 177.70106789999997 27.587964400000008 177.24461029999998 27.751076800000007 L 175.86174289999997 28.242341700000008 L 175.86174289999997 30.60913130000001 C 175.42242119999997 30.22871420000001 174.87342959999998 29.97092600000001 174.26917479999997 29.895313800000007 C 174.14301169999996 29.879248900000007 174.01192199999997 29.87089510000001 173.88233179999997 29.87089510000001 C 173.21060439999997 29.87089510000001 172.56972159999998 30.09055600000001 172.04750489999998 30.48821600000001 L 172.04750489999998 29.201845100000007 L 169.51010589999999 29.76893640000001 C 169.33853269999997 29.80642120000001 165.08582969999998 30.75949870000001 160.03073799999999 33.87812620000001 L 159.040497 34.48537980000001 L 159.040497 43.37912820000001 C 158.12094159999998 44.03864630000001 157.54024859999998 45.11563790000001 157.54024859999998 46.29212480000001 C 157.54024859999998 46.39429760000001 157.5445326 46.49593500000001 157.55288629999998 46.59671550000001 L 157.1165633 46.16017830000001 C 157.0610858 44.82582690000001 156.1485989 43.68221950000001 154.8565518 43.35588760000001 C 154.604654 43.29184220000001 154.3444025 43.25896260000001 154.0858645 43.25896260000001 C 153.4494799 43.25896260000001 152.85829120000002 43.45559710000001 152.3697037 43.79124660000001 C 151.7185393 43.124767000000006 150.809908 42.71039950000001 149.8063867 42.71039950000001 C 149.27174649999998 42.71039950000001 148.7463168 42.83217150000001 148.26951029999998 43.05857960000001 C 151.22481109999998 39.52290710000001 154.7087546 36.32556160000001 158.5671176 33.648397900000006 C 167.1449227 27.696348800000006 177.23304359999997 24.550303900000007 187.7405657 24.550303900000007 C 193.97010939999998 24.550303900000007 200.4039987 25.643574600000008 206.8640203 27.799699700000005 C 214.26116159999998 30.268233800000004 220.3491199 34.41490830000001 224.9586781 40.12459150000001 C 228.0341445 43.93411710000001 230.4991442 48.461530100000004 232.4667744 53.92338530000001 L 230.9200449 54.22304940000001 C 230.8538575 54.23579420000001 230.7859565 54.24232730000001 230.7180554 54.24232730000001 Z M 160.8207033 49.8643183 C 160.9048834 49.8713869 160.9897062 49.8754566 161.07517149999998 49.876634700000004 C 161.0265484 49.908871600000005 160.9783536 49.940894300000004 160.92973049999998 49.9734526 L 160.82070329999996 49.8643183 Z M 205.1789185 49.7050615 C 202.7559017 48.1135644 200.0066601 47.0095838 196.9641803 46.4039367 L 200.2354244 44.0067308 C 203.6835967 45.0090741 206.6538914 46.60689 209.0844052 48.7665494 C 207.6621252 49.1038054 206.35636929999998 49.4177138 205.17891849999998 49.705061400000005 Z M 164.1814825 48.1434451 C 164.50792149999998 47.612125 164.7000578 46.9930904 164.70798309999998 46.336999500000005 C 164.72212019999998 45.139735300000005 164.14057049999997 44.044751000000005 163.2079489 43.377628900000005 L 163.2079489 36.838568 C 164.98901189999998 35.8256219 166.6269901 35.1169451 167.8800531 34.6462433 L 167.8800531 37.0585502 C 166.9315808 37.498193199999996 166.2722769 38.4593032 166.2722769 39.5716376 L 166.2722769 47.2948966 C 165.56092270000002 47.544652400000004 164.8637056 47.827609 164.18148240000002 48.1434451 Z M 213.8548266 47.6483246 C 213.4844769 47.233957000000004 213.09999 46.832120100000004 212.7058642 46.447633200000006 C 209.36114990000002 43.1764962 203.32245740000002 39.22185090000001 193.4217605 38.692887000000006 C 193.0370595 38.2645965 192.53562010000002 37.950152700000004 191.9793458 37.7926094 C 192.68213210000002 37.550029300000006 193.2925986 37.093678700000005 193.723995 36.490923300000006 C 203.4122067 36.99996670000001 209.2429122 40.339111800000005 212.45568 43.100562800000006 C 214.125788 44.537729600000006 215.2923147 45.97511070000001 216.0752113 47.134568800000004 C 215.2972413 47.314067400000006 214.55761280000002 47.48521220000001 213.8548265 47.6483246 Z M 173.4862783 39.5716376 C 173.4862783 38.526775900000004 172.90430020000002 37.6152529 172.047505 37.1441226 L 172.047505 35.325574800000005 C 172.4598377 35.63798370000001 172.9548511 35.846077900000004 173.4935611 35.914086000000005 C 173.6222946 35.9303651 173.7535984 35.938718900000005 173.8829745 35.938718900000005 C 174.08817689999998 35.938718900000005 174.2912374 35.91815580000001 174.4897997 35.87788640000001 L 175.861743 36.84220940000001 L 175.861743 37.072044700000006 C 174.92869299999998 37.51757820000001 174.28245529999998 38.47054870000001 174.28245529999998 39.57163760000001 L 174.28245529999998 45.95476180000001 C 174.23918709999998 45.954547600000005 174.1961332 45.954440500000004 174.15307919999998 45.954440500000004 C 173.9318118 45.954440500000004 173.70947349999997 45.957546400000005 173.48627829999998 45.9638652 L 173.48627829999998 39.5716375 Z" stroke-linecap="round" />
</g>
		<g transform="matrix(1.7333333593333338 0 0 1.733333359333334 39.95799735477834 23.131806930570917)"  >
<linearGradient id="SVGID_131612" gradientUnits="userSpaceOnUse" gradientTransform="matrix(1 0 0 1 0 0)"  x1="187.4636544" y1="118.9749996" x2="242.3376284" y2="64.1010256">
<stop offset="0%" style="stop-color:rgb(36,59,77);stop-opacity: 1"/>
<stop offset="66.19731%" style="stop-color:rgb(146,210,240);stop-opacity: 1"/>
</linearGradient>
<path style="stroke: none; stroke-width: 1; stroke-dasharray: none; stroke-linecap: butt; stroke-dashoffset: 0; stroke-linejoin: miter; stroke-miterlimit: 4; fill: url(#SVGID_131612); fill-rule: nonzero; opacity: 1;"  paint-order="stroke"  transform=" translate(-210.55269043166902, -94.05274400303128)" d="M 232.3226187 86.5016173 C 232.0545558 85.66334560000001 232.2202118 84.7466792 232.7647155 84.0552511 L 234.6322157 81.68383960000001 C 235.1523358 81.02337450000002 235.51691939999998 80.25587110000001 235.7047414 79.43644330000001 C 236.4572905 76.1532301 237.9807726 67.113252 235.0177215 56.78111890000001 L 231.5459338 57.45263210000001 C 230.0339045 57.74533480000001 228.4608285 57.21315780000001 227.4393144 56.06398130000001 C 226.1678303 54.633347500000006 224.1269442 52.480542500000006 221.6261732 50.34905020000001 C 220.98272 49.80070130000001 220.1113593 49.58478890000001 219.2959045 49.77103470000001 C 212.1330212 51.40851040000001 207.75023050000001 52.46102360000001 205.3181879 53.059945000000006 C 204.6218576 53.231425200000004 203.999153 53.646962200000004 203.6217397 54.256749500000005 C 203.2309568 54.888138100000006 203.1218371 55.633701300000006 203.3141037 56.34865140000001 L 205.64372980000002 65.00485330000001 C 206.32852340000002 67.5487853 205.2843042 70.1911417 203.0454984 71.5801138 L 197.2683426 75.1637668 C 196.5880472 75.5858455 196.04226870000002 76.18881520000001 195.6894832 76.9076663 L 194.5700803 79.1903829 C 193.8465168 80.66557 194.0431513 82.4471685 195.07044870000001 83.7291484 L 207.8647572 99.6930636 C 209.58605880000002 101.8409421 210.3096223 104.6291678 209.84952330000002 107.3430666 L 208.79223800000003 113.579893 C 208.61209680000002 114.6430687 207.85768860000002 115.4937593 206.82375100000002 115.8000636 C 205.789385 116.1063679 204.69375810000003 115.8034908 203.96355440000002 115.0102055 L 192.68277460000002 102.7528934 C 191.4369944 101.399157 190.85844340000003 99.5765394 191.0949189 97.7524224 L 191.31651720000002 96.0439949 C 191.59785850000003 93.8749744 191.20482420000002 91.6719199 190.1907873 89.7340004 L 190.19078570000002 89.73399739999999 C 190.0761893 89.51455069999999 189.86456090000001 89.4949515 189.78916300000003 89.49441599999999 C 189.70669650000002 89.49548699999998 189.50299340000004 89.52194049999999 189.39396620000002 89.74438599999999 L 185.13783610000002 98.42179359999999 C 183.18519980000002 102.40385639999998 182.760872 106.95076139999999 183.9432494 111.22509839999998 L 183.9432514 111.22510549999998 C 185.21832930000002 115.83437479999998 187.8977656 119.93188269999999 191.6090963 122.94804109999998 L 205.0409709 133.86398089999997 C 206.33210499999998 134.91327169999997 207.73801319999998 135.81283479999996 209.23177389999998 136.54544479999998 L 212.17877449999997 137.99079139999998 C 213.50064719999997 138.63909939999996 215.07163329999997 138.50995319999998 216.26988389999997 137.65447299999997 L 220.08651359999996 134.92962479999997 C 220.98510119999997 134.28808629999997 221.57731669999995 133.30457769999998 221.72781019999996 132.21078469999998 C 222.20570699999996 128.73740949999998 223.64575069999995 120.40467319999998 227.30158439999997 111.78943999999998 C 228.14525449999996 109.80127119999999 229.90951569999996 108.35236979999999 232.02853219999997 107.93480159999999 L 235.66503029999998 107.21820209999998 C 236.2339084 107.10610039999999 236.7154206 106.72983439999999 236.9617252 106.20493149999999 L 237.646155 104.74633459999998 C 237.8414508 104.33022669999998 237.8721347 103.85566919999998 237.73210229999998 103.41786029999999 L 232.3226187 86.50161719999998 Z" stroke-linecap="round" />
</g>
		<g transform="matrix(1.7333333593333338 0 0 1.733333359333334 -18.02455179993268 -12.34431344305716)"  >
<linearGradient id="SVGID_131613" gradientUnits="userSpaceOnUse" gradientTransform="matrix(0.7071067811865476 0.7071067811865475 -0.7071067811865475 0.7071067811865476 -230.6897556 -2167.0184433)"  x1="1878.1867879" y1="1314.7437648" x2="1878.1867879" y2="1277.2455472">
<stop offset="0%" style="stop-color:rgb(146,210,240);stop-opacity: 1"/>
<stop offset="100%" style="stop-color:rgb(36,59,77);stop-opacity: 1"/>
</linearGradient>
<path style="stroke: none; stroke-width: 1; stroke-dasharray: none; stroke-linecap: butt; stroke-dashoffset: 0; stroke-linejoin: miter; stroke-miterlimit: 4; fill: url(#SVGID_131613); fill-rule: nonzero; opacity: 1;"  paint-order="stroke"  transform=" translate(-177.10122026726162, -73.58575178678919)" d="M 188.0497242 58.0190118 L 184.726839 61.341897 C 189.3441909 66.87958280000001 189.0561082 75.15094760000001 183.8612621 80.3457937 C 178.66640800000002 85.5406478 170.3950512 85.8287225 164.8573575 81.2113786 L 161.5344803 84.5342558 C 168.9076463 90.97142939999999 180.1498985 90.679424 187.17239550000002 83.656927 C 194.19489250000004 76.63443 194.4868978 65.39217769999999 188.0497243 58.0190118 Z" stroke-linecap="round" />
</g>
		<g transform="matrix(1.7333333593333338 0 0 1.733333359333334 -17.363804903252458 -11.678683250173975)"  >
<linearGradient id="SVGID_131614" gradientUnits="userSpaceOnUse" gradientTransform="matrix(0.7071067811865476 0.7071067811865475 -0.7071067811865475 0.7071067811865476 -230.6897556 -2167.0184433)"  x1="1878.186652" y1="1313.0211363" x2="1878.186652" y2="1278.96761">
<stop offset="0%" style="stop-color:rgb(36,59,77);stop-opacity: 1"/>
<stop offset="100%" style="stop-color:rgb(146,210,240);stop-opacity: 1"/>
</linearGradient>
<path style="stroke: none; stroke-width: 1; stroke-dasharray: none; stroke-linecap: butt; stroke-dashoffset: 0; stroke-linejoin: miter; stroke-miterlimit: 4; fill: url(#SVGID_131614); fill-rule: nonzero; opacity: 1;"  paint-order="stroke"  transform=" translate(-177.48242039424375, -73.9697692)" d="M 173.8840455 87.617178 C 170.25830240000002 87.6170709 166.7486551 86.4850302 163.8381218 84.4017327 L 164.9969373 83.2430243 C 167.59302670000002 85.033405 170.7001945 86.006403 173.88640170000002 86.0061888 C 178.06906170000002 86.0059746 181.99703920000002 84.3812767 184.94698510000003 81.4314379 C 190.27753640000003 76.1007795 190.96575720000004 67.5920535 186.75825010000003 61.4818185 L 187.91770820000002 60.3223604 C 192.76952520000003 67.0917922 192.08837300000002 76.5694464 186.08652270000002 82.5712968 C 182.83305710000002 85.8250837 178.49917280000003 87.6171779 173.88447390000002 87.6171779 L 173.8840455 87.6171779 Z" stroke-linecap="round" />
</g>
		<g transform="matrix(1.7333333593333338 0 0 1.733333359333334 -29.68623475597542 -24.005996432947683)"  >
<linearGradient id="SVGID_131615" gradientUnits="userSpaceOnUse" gradientTransform="matrix(1 0 0 1 0 0)"  x1="151.7262048" y1="77.0672423" x2="180.5827108" y2="48.2107364">
<stop offset="0%" style="stop-color:rgb(17,59,79);stop-opacity: 1"/>
<stop offset="100%" style="stop-color:rgb(233,247,252);stop-opacity: 1"/>
</linearGradient>
<path style="stroke: none; stroke-width: 1; stroke-dasharray: none; stroke-linecap: butt; stroke-dashoffset: 0; stroke-linejoin: miter; stroke-miterlimit: 4; fill: url(#SVGID_131615); fill-rule: nonzero; opacity: 1;"  paint-order="stroke"  transform=" translate(-170.37332635507846, -66.85785785507846)" d="M 165.080276 61.5648076 C 160.5554747 66.0896089 160.2426073 73.2307222 164.139088 78.1179522 L 162.1752369 80.0818033 C 157.21401889999999 74.1104061 157.52879589999998 65.2057399 163.12469969999998 59.609836 C 168.72060359999998 54.013932100000005 177.6252141 53.699210900000004 183.59660329999997 58.6604368 L 181.63341259999996 60.6236275 C 176.74619049999995 56.7271389 169.60506929999997 57.040014199999995 165.08027589999995 61.564807599999995 Z M 161.377951 57.8630873 C 167.9384192 51.302619099999994 178.4119973 50.9831875 185.352892 56.904148199999995 L 187.3145073 54.942532899999996 C 179.2816958 47.9343497 167.0747996 48.2550543 159.4226612 55.907192699999996 C 151.77052279999998 63.559331099999994 151.44981819999998 75.7662273 158.4580014 83.79903879999999 L 160.4189484 81.83809179999999 C 154.4979877 74.89719709999999 154.8174193 64.42361899999999 161.37795110000002 57.86308719999999 Z" stroke-linecap="round" />
</g>
		<g transform="matrix(1.7333333593333338 0 0 1.733333359333334 -29.68623475597542 -24.005996432947683)"  >
<linearGradient id="SVGID_131616" gradientUnits="userSpaceOnUse" gradientTransform="matrix(1 0 0 1 0 0)"  x1="151.7262048" y1="77.0672423" x2="180.5827108" y2="48.2107364">
<stop offset="0%" style="stop-color:rgb(36,59,77);stop-opacity: 1"/>
<stop offset="100%" style="stop-color:rgb(146,210,240);stop-opacity: 1"/>
</linearGradient>
<path style="stroke: none; stroke-width: 1; stroke-dasharray: none; stroke-linecap: butt; stroke-dashoffset: 0; stroke-linejoin: miter; stroke-miterlimit: 4; fill: url(#SVGID_131616); fill-rule: nonzero; opacity: 1;"  paint-order="stroke"  transform=" translate(-170.37332635507846, -66.85785785507846)" d="M 165.080276 61.5648076 C 160.5554747 66.0896089 160.2426073 73.2307222 164.139088 78.1179522 L 162.1752369 80.0818033 C 157.21401889999999 74.1104061 157.52879589999998 65.2057399 163.12469969999998 59.609836 C 168.72060359999998 54.013932100000005 177.6252141 53.699210900000004 183.59660329999997 58.6604368 L 181.63341259999996 60.6236275 C 176.74619049999995 56.7271389 169.60506929999997 57.040014199999995 165.08027589999995 61.564807599999995 Z M 161.377951 57.8630873 C 167.9384192 51.302619099999994 178.4119973 50.9831875 185.352892 56.904148199999995 L 187.3145073 54.942532899999996 C 179.2816958 47.9343497 167.0747996 48.2550543 159.4226612 55.907192699999996 C 151.77052279999998 63.559331099999994 151.44981819999998 75.7662273 158.4580014 83.79903879999999 L 160.4189484 81.83809179999999 C 154.4979877 74.89719709999999 154.8174193 64.42361899999999 161.37795110000002 57.86308719999999 Z" stroke-linecap="round" />
</g>
		<g transform="matrix(1.7333333593333338 0 0 1.733333359333334 -23.60102870683329 -17.919629570454845)"  >
<linearGradient id="SVGID_131617" gradientUnits="userSpaceOnUse" gradientTransform="matrix(0.7071067811865476 0.7071067811865475 -0.7071067811865475 0.7071067811865476 -404.57377770000005 -2237.3876666)"  x1="1858.2408817" y1="1295.9951295" x2="1878.056824" y2="1295.9951295">
<stop offset="0%" style="stop-color:rgb(146,210,240);stop-opacity: 1"/>
<stop offset="100%" style="stop-color:rgb(36,59,77);stop-opacity: 1"/>
</linearGradient>
<circle style="stroke: none; stroke-width: 1; stroke-dasharray: none; stroke-linecap: butt; stroke-dashoffset: 0; stroke-linejoin: miter; stroke-miterlimit: 4; fill: url(#SVGID_131617); fill-rule: nonzero; opacity: 1;"  paint-order="stroke"  cx="0" cy="0" r="9.9079712" />
</g>
		<g transform="matrix(1.7333333593333338 0 0 1.733333359333334 -23.60098814683272 -17.919586757120868)"  >
<linearGradient id="SVGID_131618" gradientUnits="userSpaceOnUse" gradientTransform="matrix(0.7071067811865476 0.7071067811865475 -0.7071067811865475 0.7071067811865476 -230.6897556 -2167.0184433)"  x1="1859.7763267" y1="1295.9951305" x2="1876.5214473" y2="1295.9951305">
<stop offset="0%" style="stop-color:rgb(36,59,77);stop-opacity: 1"/>
<stop offset="100%" style="stop-color:rgb(146,210,240);stop-opacity: 1"/>
</linearGradient>
<path style="stroke: none; stroke-width: 1; stroke-dasharray: none; stroke-linecap: butt; stroke-dashoffset: 0; stroke-linejoin: miter; stroke-miterlimit: 4; fill: url(#SVGID_131618); fill-rule: nonzero; opacity: 1;"  paint-order="stroke"  transform=" translate(-173.8840455, -70.369248)" d="M 173.8840455 78.7418507 C 171.6475958 78.7418507 169.54502040000003 77.8709184 167.9638049 76.2895957 C 164.69920100000002 73.0250989 164.69920100000002 67.71339710000001 167.9638049 64.4489003 C 169.54502040000003 62.867577700000005 171.64759590000003 61.996645300000004 173.8840455 61.996645300000004 C 176.1204951 61.996645300000004 178.2230706 62.867577600000004 179.8042861 64.4489003 C 183.06889 67.71339710000001 183.06889 73.0250989 179.8042861 76.2895957 C 178.2230706 77.8709183 176.1204951 78.7418507 173.8840455 78.7418507 Z" stroke-linecap="round" />
</g>
		<g transform="matrix(1.7333333593333338 0 0 1.733333359333334 27.90263397451696 17.45048322676351)"  >
<linearGradient id="SVGID_131619" gradientUnits="userSpaceOnUse" gradientTransform="matrix(1 0 0 1 0 0)"  x1="184.8222082" y1="90.7750573" x2="222.3731381" y2="90.7750573">
<stop offset="30%" style="stop-color:rgb(146,210,240);stop-opacity: 1"/>
<stop offset="100%" style="stop-color:rgb(36,59,77);stop-opacity: 1"/>
</linearGradient>
<path style="stroke: none; stroke-width: 1; stroke-dasharray: none; stroke-linecap: butt; stroke-dashoffset: 0; stroke-linejoin: miter; stroke-miterlimit: 4; fill: url(#SVGID_131619); fill-rule: nonzero; opacity: 1;"  paint-order="stroke"  transform=" translate(-203.59767320122808, -90.7750573)" d="M 221.6063064 86.89004 L 219.2662916 86.89004 C 218.74064769999998 86.89004 218.2317649 86.7051463 217.82864279999998 86.3677296 L 211.55899039999997 81.1194708 C 211.02708119999997 80.6742318 211.01106989999997 79.861749 211.52498629999997 79.3958934 L 213.63645099999997 77.4817728 L 206.80425899999997 78.1537814 L 206.80425899999997 77.4611964 C 206.80425899999997 76.52129210000001 207.44990769999998 75.7044717 208.36442949999997 75.4874214 L 218.51830939999996 73.0773502 C 219.83140159999996 72.7656776 221.19825769999997 72.9463141 222.37313809999998 73.5581462 C 222.17602169999998 62.6897661 220.06412859999998 54.5127269 219.12422429999998 51.3853173 C 212.26622129999998 52.9555284 208.03879379999998 53.9711788 205.68528449999997 54.550773899999996 C 205.35541829999997 54.63195519999999 205.07910189999996 54.81937919999999 204.92723489999997 55.064743899999996 C 204.75930299999996 55.336347999999994 204.71410709999998 55.6424381 204.79678779999998 55.94959909999999 L 207.1264139 64.60580099999999 C 207.9885641 67.80882269999998 206.67381179999998 71.13586559999999 203.8547414 72.88490589999998 L 198.0777998 76.46845179999998 C 197.642762 76.73834229999999 197.293618 77.12411429999999 197.0680667 77.58367779999999 L 195.9486638 79.86650149999998 C 195.48599439999998 80.80972589999999 195.6115149 81.94904929999998 196.2684626 82.76889519999999 L 209.0627711 98.73291749999999 C 211.0580329 101.22255009999998 211.8966212 104.45438159999999 211.3632662 107.59967679999998 L 210.3059809 113.83639609999999 C 210.02730830000002 115.48154999999998 208.860139 116.79812289999998 207.2596456 117.27225189999999 C 206.8548099 117.39209609999999 206.4373364 117.45292859999999 206.0185778 117.45292859999999 C 204.8154231 117.45292859999999 203.6544657 116.9416361 202.8338701 116.0499265 L 191.55287610000002 103.79261439999999 C 189.9992922 102.10419239999999 189.27722810000003 99.8306863 189.57239400000003 97.55482409999999 L 189.79408980000002 95.84658869999998 C 189.93160540000002 94.78534069999998 189.88319650000003 93.72366439999999 189.655289 92.69829469999999 L 186.51641980000002 99.09780509999999 C 184.72914500000002 102.74239769999998 184.34101680000003 106.90385189999999 185.42314910000002 110.8157646 C 186.6198778 115.142152 189.0938739 118.9254382 192.577389 121.7566109 L 202.92372650000001 130.1647973 C 215.03190270000002 114.97640220000001 219.91445720000002 99.4401215 221.60630640000002 86.89003980000001 Z" stroke-linecap="round" />
</g>
		<g transform="matrix(1.7333333593333338 0 0 1.733333359333334 56.534745304451064 23.29727508779871)"  >
<linearGradient id="SVGID_131620" gradientUnits="userSpaceOnUse" gradientTransform="matrix(1 0 0 1 0 0)"  x1="203.9490425" y1="94.1482065" x2="236.2833551" y2="94.1482065">
<stop offset="30%" style="stop-color:rgb(146,210,240);stop-opacity: 1"/>
<stop offset="100%" style="stop-color:rgb(36,59,77);stop-opacity: 1"/>
</linearGradient>
<path style="stroke: none; stroke-width: 1; stroke-dasharray: none; stroke-linecap: butt; stroke-dashoffset: 0; stroke-linejoin: miter; stroke-miterlimit: 4; fill: url(#SVGID_131620); fill-rule: nonzero; opacity: 1;"  paint-order="stroke"  transform=" translate(-220.11619872071986, -94.14820639999999)" d="M 220.5092872 51.431718 C 220.5506811 51.4586535 220.5923963 51.485267699999994 220.63036309999998 51.517611699999996 C 223.06494669999998 53.5927697 225.05292569999997 55.689990099999996 226.29163739999998 57.0839959 C 227.4121113 58.3444487 229.0260993 59.0672626 230.7199834 59.0671555 C 231.09483129999998 59.0670484 231.4707502 59.031062999999996 231.83767269999998 58.960056099999996 L 233.9064047 58.5599327 C 236.2630199 67.9284527 234.9234206 75.97333119999999 234.2082108 79.09335089999999 C 234.06940999999998 79.69921219999999 233.8061597 80.2510954 233.4259568 80.73379239999998 C 232.0724346 80.73379239999998 230.7606276 80.26556719999998 229.7130348 79.40854439999998 L 223.7005816 74.48997769999998 C 223.6149556 63.47461699999998 221.55393479999998 55.02286789999998 220.5092872 51.43171789999998 Z M 236.26966 103.8854697 L 230.8600693 86.9691195 C 230.5288109 85.932558 230.6178105 84.82433350000001 231.0831038 83.8672264 L 225.8305744 86.6321982 C 225.50890139999998 86.8015491 225.1508145 86.89004 224.7873191 86.89004 L 222.9408183 86.89004 C 222.01194519999999 93.9951748 220.23998559999998 100.9091372 217.63757729999998 107.5270635 C 214.3675113 115.84216719999999 209.77862329999996 123.7033301 203.94904239999997 130.9980308 L 206.00936709999996 132.67239600000002 C 207.20909459999996 133.64742890000002 208.52063379999996 134.4866598 209.90799939999997 135.16695520000002 L 212.85473229999997 136.61236870000002 C 213.19145279999998 136.7774089 213.56737169999997 136.86469490000002 213.94200539999997 136.86469490000002 C 214.45993809999996 136.86469490000002 214.95645089999996 136.70565230000003 215.37777999999997 136.40481010000002 L 219.19437419999997 133.67998720000003 C 219.74507929999996 133.28682530000003 220.11414379999997 132.67507350000002 220.20667769999997 132.00141830000004 C 220.66142179999997 128.69825860000003 222.12504209999997 120.05790740000003 225.88830089999996 111.18954170000004 C 226.93509039999995 108.72304250000003 229.11948979999997 106.94315760000003 231.73164409999995 106.42833080000004 L 235.36809709999994 105.71183580000005 C 235.45720379999995 105.69427150000004 235.53324439999994 105.63472420000005 235.57180019999996 105.55279320000004 L 236.25637959999995 104.09377810000004 C 236.28700999999995 104.02855460000004 236.29172239999994 103.95465600000004 236.26965989999994 103.88546980000004 Z" stroke-linecap="round" />
</g>
		<g transform="matrix(1.7333333593333338 0 0 1.733333359333334 21.836886098068817 36.07453821945768)"  >
<path style="stroke: none; stroke-width: 1; stroke-dasharray: none; stroke-linecap: butt; stroke-dashoffset: 0; stroke-linejoin: miter; stroke-miterlimit: 4; fill: rgb(233,247,252); fill-rule: nonzero; opacity: 1;"  paint-order="stroke"  transform=" translate(-200.09820332500004, -101.51970425)" d="M 205.8059855 110.5082422 C 205.1501088 111.1640654 204.36490949999998 111.64441959999999 203.5094531 111.9251673 L 202.5312072 110.8635713 C 203.4261298 110.69687110000001 204.2486532 110.2647786 204.90667190000002 109.6045643 C 205.76646590000001 108.7469391 206.23802450000002 107.60199290000001 206.23802450000002 106.38246550000001 C 206.23802450000002 105.1629381 205.76646580000002 104.01578300000001 204.90667190000002 103.1581711 C 204.04462880000003 102.29836370000001 202.8997362 101.82238720000001 201.68239090000003 101.82238720000001 C 200.46504560000005 101.82238720000001 199.31790390000003 102.29836370000001 198.45810990000004 103.1581711 C 197.88121900000004 103.7350352 197.49078810000003 104.4281424 197.28901290000005 105.16513350000001 L 196.31076700000006 104.10352410000002 C 196.59372360000006 103.43234550000001 197.01044740000006 102.80284210000002 197.55660080000007 102.25668870000001 C 198.65768970000008 101.15340420000001 200.12505860000007 100.54802490000002 201.68239100000008 100.54802490000002 C 203.2396698000001 100.54802490000002 204.7048967000001 101.15340430000002 205.80598560000007 102.25668870000001 C 208.08270460000006 104.53123900000001 208.08270460000006 108.23369200000002 205.80598560000007 110.5082423 Z M 198.102754 92.8228916 C 197.0016651 91.7196071 195.5364917 91.11424120000001 193.9769638 91.11424120000001 C 193.5360891 91.11424120000001 193.1018011 91.1624895 192.6828818 91.25899940000001 C 192.8013337 91.66696780000001 192.89563479999998 92.0793273 192.9702295 92.49827330000001 C 193.29698979999998 92.423692 193.6347813 92.386408 193.9769639 92.386408 C 195.19650479999999 92.386408 196.34145089999998 92.8623711 197.20124489999998 93.724374 C 198.06109239999998 94.5819992 198.53484659999998 95.72694539999999 198.53484659999998 96.9486684 C 198.53484659999998 98.1681959 198.06109239999998 99.313142 197.20124489999998 100.1707672 C 196.34145089999998 101.0349656 195.19650479999999 101.5087332 193.9769639 101.5087332 C 193.95939959999998 101.5087332 193.94408439999998 101.5087332 193.92652009999998 101.5065377 C 193.9396933 101.52628419999999 193.95725759999996 101.5438351 193.9747684 101.5635681 L 195.01224029999997 102.6909767 C 196.17914179999997 102.48479699999999 197.24949319999996 101.9276793 198.10275409999997 101.07444509999999 C 200.37947309999998 98.79769929999999 200.37947309999998 95.09744179999998 198.10275409999997 92.8228915 Z M 203.3460194 106.343508 C 203.3460194 105.4458008 202.6156015 104.71549 201.71789429999998 104.71549 C 200.82018709999997 104.71549 200.0899834 105.4458008 200.0899834 106.343508 C 200.0899834 107.2412152 200.8201871 107.9716331 201.71789429999998 107.9716331 C 202.61560149999997 107.9716331 203.3460194 107.2412152 203.3460194 106.343508 Z M 195.6417705 96.8126789 C 195.6417705 95.9155742 194.91135260000001 95.185183 194.01423450000001 95.185183 C 193.6918118 95.185183 193.3891489 95.2794974 193.13473420000003 95.44619759999999 C 193.11716990000002 95.72037209999999 193.09082340000003 95.99454649999998 193.05574840000003 96.26872099999999 L 192.84079990000004 97.93350079999999 C 193.13248510000003 98.2449592 193.55145800000003 98.44017469999999 194.01423450000004 98.44017469999999 C 194.91135260000004 98.44017469999999 195.64177050000004 97.70977019999998 195.64177050000004 96.81267879999999 Z" stroke-linecap="round" />
</g>
</g>
</g>
		<g transform="matrix(1 0 0 1 0.012999999999962597 91.03639289591212)" id="text-logo"  >
<g style=""  paint-order="stroke"   >
		<g transform="matrix(1 0 0 1 0 0)" id="text-logo-path-0"  >
<linearGradient id="SVGID_131625" gradientUnits="userSpaceOnUse" gradientTransform="matrix(1 0 0 1 1.7199999999999989 -36.92)"  x1="-1.715999999999994" y1="-8.795279999999991" x2="-1.715999999999994" y2="50.20472000000001">
<stop offset="0%" style="stop-color:rgb(250,217,97);stop-opacity: 1"/>
<stop offset="100%" style="stop-color:rgb(247,107,28);stop-opacity: 1"/>
</linearGradient>
<path style="stroke: rgb(255,255,255); stroke-width: 0; stroke-dasharray: none; stroke-linecap: butt; stroke-dashoffset: 0; stroke-linejoin: miter; stroke-miterlimit: 4; fill: url(#SVGID_131625); fill-rule: nonzero; opacity: 1;"  paint-order="stroke"  transform=" translate(-95.5, 16.145)" d="M 15.76 0 L 22.93 0 L 36.97 -36.4 L 30.32 -36.4 L 19.34 -7.96 L 8.37 -36.4 L 1.72 -36.4 Z M 50.28 0 L 50.28 -36.4 L 44.04 -36.4 L 44.04 0 Z M 71.4 0 L 78.57 0 L 92.61 -36.4 L 85.96 -36.4 L 74.98 -7.96 L 64.01 -36.4 L 57.36 -36.4 Z M 105.92 0 L 105.92 -36.4 L 99.68 -36.4 L 99.68 0 Z M 131.25 -5.72 C 121.26 -5.72 119.24 -7.8 119.24 -18.2 C 119.24 -28.65 121.32 -30.68 131.25 -30.68 C 141.18 -30.68 143.21 -28.6 143.21 -18.2 C 143.21 -12.9 142.69 -9.78 140.87 -7.96 L 135.1 -13.73 L 130.73 -9.36 L 134.26 -5.82 C 133.38 -5.72 132.34 -5.72 131.25 -5.72 Z M 113 -18.2 C 113 -4.84 118.2 0.52 131.25 0.52 C 134.47 0.52 137.28 0.21 139.57 -0.52 L 144.72 4.63 L 149.08 0.26 L 145.13 -3.69 C 148.1 -6.66 149.45 -11.34 149.45 -18.2 C 149.45 -31.67 144.25 -36.92 131.25 -36.92 C 118.35 -36.92 113 -31.82 113 -18.2 Z M 171.08 -6.24 L 162.76 -6.24 L 162.76 -30.16 L 171.08 -30.16 C 181.01 -30.16 183.04 -28.08 183.04 -18.2 C 183.04 -8.27 180.96 -6.24 171.08 -6.24 Z M 156.52 0 L 171.08 0 C 183.92 0 189.28 -5.1 189.28 -18.2 C 189.28 -31.15 184.08 -36.4 171.08 -36.4 L 156.52 -36.4 Z" stroke-linecap="round" />
</g>
</g>
</g>
</g>
</g>
<g transform="matrix(1.4712978897359945 0 0 1.4712978897359945 500.24128251023814 500.24128251023814)" id="circular-mask"  >
<path style="stroke: none; stroke-width: 0; stroke-dasharray: none; stroke-linecap: butt; stroke-dashoffset: 0; stroke-linejoin: miter; stroke-miterlimit: 4; fill: rgb(255,255,255); fill-rule: nonzero; opacity: 1;"  paint-order="stroke"  transform=" translate(0, 0)" d="M -340 -340 L 340 -340 L 340 340 L -340 340 L -340 0 M -340 0 C -340 187.77681494246977 -187.77681494246977 340 0 340 C 187.77681494246974 340 340 187.77681494246977 340 0 C 340 -187.77681494246977 187.77681494246977 -340 0 -340 C -187.77681494246974 -340 -340 -187.7768149424698 -340 -4.163799117101001e-14 M -340 0 L -340 -340" stroke-linecap="round" />
</g>
</svg>